#!OML:ASF H:\Punching\Project 1\Capture day 1\Session 1\female.ASF
:FULLY-SPECIFIED
:DEGREES
2720
root -0.23466 15.4113 7.73475 11.5584 -2.1626 0.397793
lowerback 0.143619 -1.15232 1.01418
upperback -6.36627 -1.44556 1.2282
thorax -6.6877 -0.737518 0.798911
lowerneck -13.5086 -1.79051 5.33564
upperneck 33.3968 -4.20461 -0.3239
head 13.3922 -1.2353 -1.70147
rclavicle 3.60297e-016 -1.51076e-014
rhumerus -9.21886 2.3693 -63.5429
rradius 98.2663
rwrist -8.78588
rhand -24.5873 4.28243
rfingers 7.12502
rthumb 1.91014 -25.6888
lclavicle 3.60297e-016 -1.51076e-014
lhumerus -44.2081 -34.1888 99.7069
lradius 115.679
lwrist -1.30685
lhand -24.1114 5.70385
lfingers 7.12502
lthumb 2.3698 35.6704
rfemur -31.5273 -5.30468 8.39139
rtibia 34.3373
rfoot -6.52369 -16.0712
rtoes -6.28957
lfemur -5.68292 -3.99057 -11.375
ltibia 16.6611
lfoot -17.4236 17.6099
ltoes -12.9072
2721
root -0.136568 15.434 7.69191 11.5836 -1.97282 0.326953
lowerback 0.146248 -1.09824 1.04161
upperback -6.3623 -1.37062 1.24336
thorax -6.68567 -0.701202 0.794865
lowerneck -13.5263 -1.74324 5.47392
upperneck 33.4201 -4.16895 -0.335651
head 13.405 -1.20132 -1.72517
rclavicle -9.34288e-015 7.15625e-015
rhumerus -9.37586 3.75776 -64.311
rradius 98.8894
rwrist -9.007
rhand -23.8624 3.9758
rfingers 7.12502
rthumb 2.61024 -25.988
lclavicle -9.34288e-015 7.15625e-015
lhumerus -43.6347 -34.5212 99.9174
lradius 115.531
lwrist -1.39447
lhand -23.9708 5.76623
lfingers 7.12502
lthumb 2.50555 35.7313
rfemur -31.107 -4.94189 7.96083
rtibia 33.3297
rfoot -5.58235 -16.5361
rtoes -6.66664
lfemur -5.95373 -4.08942 -11.5831
ltibia 16.6062
lfoot -17.2402 17.2636
ltoes -13.0091
2722
root -0.0369835 15.4581 7.64875 11.6213 -1.82983 0.27622
lowerback 0.141898 -1.03625 1.05389
upperback -6.35293 -1.28638 1.2496
thorax -6.67366 -0.65973 0.789177
lowerneck -13.5386 -1.6953 5.60553
upperneck 33.414 -4.1329 -0.335242
head 13.4045 -1.16743 -1.74218
rclavicle -1.06474e-014 3.97569e-015
rhumerus -9.56817 5.14983 -65.1192
rradius 99.4979
rwrist -9.27243
rhand -23.16 3.72051
rfingers 7.12502
rthumb 3.28862 -26.2339
lclavicle -1.06474e-014 3.97569e-015
lhumerus -43.0645 -34.8538 100.135
lradius 115.381
lwrist -1.4263
lhand -23.8317 5.83775
lfingers 7.12502
lthumb 2.63989 35.8012
rfemur -30.7192 -4.52453 7.49685
rtibia 32.3165
rfoot -4.54331 -17.0455
rtoes -7.11084
lfemur -6.20523 -4.14355 -11.8376
ltibia 16.4996
lfoot -17.0426 16.9402
ltoes -12.9712
2723
root 0.0639583 15.4835 7.60581 11.6703 -1.73395 0.247007
lowerback 0.127408 -0.968453 1.05261
upperback -6.33695 -1.1957 1.24695
thorax -6.64859 -0.614607 0.78109
lowerneck -13.5526 -1.64225 5.73333
upperneck 33.3851 -4.08863 -0.3312
head 13.395 -1.13076 -1.7555
rclavicle -4.9634e-015 5.96354e-015
rhumerus -9.79114 6.54945 -65.9708
rradius 100.087
rwrist -9.5941
rhand -22.4228 3.49634
rfingers 7.12502
rthumb 4.00045 -26.4459
lclavicle -4.9634e-015 5.96354e-015
lhumerus -42.497 -35.1867 100.354
lradius 115.227
lwrist -1.40574
lhand -23.7109 5.92106
lfingers 7.12502
lthumb 2.75655 35.883
rfemur -30.364 -4.05665 6.99782
rtibia 31.299
rfoot -3.42271 -17.6053
rtoes -7.52368
lfemur -6.42718 -4.16997 -12.143
ltibia 16.3341
lfoot -16.8349 16.6675
ltoes -12.7676
2724
root 0.166077 15.5102 7.56336 11.7317 -1.68643 0.23823
lowerback 0.106543 -0.892142 1.04232
upperback -6.32438 -1.09457 1.23508
thorax -6.6235 -0.56411 0.767832
lowerneck -13.5503 -1.58647 5.85342
upperneck 33.3387 -4.03591 -0.327769
head 13.3749 -1.09231 -1.76582
rclavicle 6.10642e-015 1.98785e-015
rhumerus -10.0682 7.9654 -66.8645
rradius 100.646
rwrist -9.98105
rhand -21.656 3.30938
rfingers 7.12502
rthumb 4.74096 -26.6176
lclavicle 6.10642e-015 1.98785e-015
lhumerus -41.9661 -35.5167 100.596
lradius 115.078
lwrist -1.34905
lhand -23.5987 6.01249
lfingers 7.12502
lthumb 2.86488 35.973
rfemur -30.0444 -3.53985 6.46555
rtibia 30.2791
rfoot -2.23587 -18.224
rtoes -7.83134
lfemur -6.6097 -4.18896 -12.4979
ltibia 16.0972
lfoot -16.6102 16.4678
ltoes -12.4249
2725
root 0.268968 15.5378 7.52129 11.8112 -1.68611 0.244059
lowerback 0.0683754 -0.809663 1.02477
upperback -6.31197 -0.986078 1.21816
thorax -6.58857 -0.50974 0.752723
lowerneck -13.5638 -1.52502 5.97538
upperneck 33.2968 -3.97166 -0.340087
head 13.3601 -1.05051 -1.7814
rclavicle 1.37845e-014 -1.23246e-014
rhumerus -10.3733 9.40159 -67.8023
rradius 101.163
rwrist -10.445
rhand -20.8257 3.12109
rfingers 7.12502
rthumb 5.54263 -26.7864
lclavicle 1.37845e-014 -1.23246e-014
lhumerus -41.4679 -35.8505 100.859
lradius 114.926
lwrist -1.29005
lhand -23.5267 6.11322
lfingers 7.12502
lthumb 2.93442 36.0728
rfemur -29.7702 -2.96806 5.90584
rtibia 29.2564
rfoot -0.998993 -18.9251
rtoes -7.96341
lfemur -6.75592 -4.21357 -12.8902
ltibia 15.7821
lfoot -16.3614 16.3458
ltoes -11.9658
2726
root 0.372586 15.5663 7.4799 11.9092 -1.73039 0.260654
lowerback 0.0124108 -0.720192 1.00828
upperback -6.3071 -0.868615 1.19746
thorax -6.55154 -0.451126 0.73256
lowerneck -13.5743 -1.46032 6.09423
upperneck 33.261 -3.89558 -0.371147
head 13.3473 -1.00638 -1.80214
rclavicle -7.38609e-015 1.39149e-014
rhumerus -10.7223 10.8589 -68.7783
rradius 101.63
rwrist -10.9756
rhand -19.931 2.96926
rfingers 7.12502
rthumb 6.40643 -26.9138
lclavicle -7.38609e-015 1.39149e-014
lhumerus -41.0265 -36.1706 101.152
lradius 114.778
lwrist -1.24218
lhand -23.4561 6.20289
lfingers 7.12502
lthumb 3.00267 36.1615
rfemur -29.5378 -2.33652 5.31939
rtibia 28.2301
rfoot 0.243891 -19.7324
rtoes -7.80007
lfemur -6.86361 -4.25255 -13.3128
ltibia 15.3873
lfoot -16.0812 16.3006
ltoes -11.4307
2727
root 0.476493 15.5952 7.43921 12.0253 -1.81446 0.282101
lowerback -0.056959 -0.623665 0.998931
upperback -6.31538 -0.741643 1.1742
thorax -6.52099 -0.388295 0.705399
lowerneck -13.5688 -1.39242 6.21178
upperneck 33.2322 -3.80676 -0.42216
head 13.3338 -0.959531 -1.82848
rclavicle -4.90128e-015 -5.1684e-015
rhumerus -11.1264 12.3291 -69.7942
rradius 102.046
rwrist -11.5593
rhand -18.9783 2.83349
rfingers 7.12502
rthumb 7.32607 -27.0197
lclavicle -4.90128e-015 -5.1684e-015
lhumerus -40.6566 -36.4797 101.481
lradius 114.636
lwrist -1.21612
lhand -23.388 6.28429
lfingers 7.12502
lthumb 3.06836 36.242
rfemur -29.3441 -1.62977 4.70802
rtibia 27.1999
rfoot 1.46517 -20.678
rtoes -7.28577
lfemur -6.93854 -4.30464 -13.7526
ltibia 14.9214
lfoot -15.7685 16.3179
ltoes -10.847
2728
root 0.580168 15.6243 7.39956 12.1607 -1.9367 0.29341
lowerback -0.14918 -0.522802 1.00559
upperback -6.32646 -0.608571 1.15319
thorax -6.48041 -0.323253 0.671304
lowerneck -13.5673 -1.31668 6.33565
upperneck 33.2074 -3.70121 -0.495703
head 13.3229 -0.907515 -1.8625
rclavicle 2.83268e-015 -1.19271e-015
rhumerus -11.5578 13.7955 -70.8551
rradius 102.409
rwrist -12.1748
rhand -17.926 2.69486
rfingers 7.12502
rthumb 8.34175 -27.1204
lclavicle 2.83268e-015 -1.19271e-015
lhumerus -40.3271 -36.7737 101.816
lradius 114.492
lwrist -1.21341
lhand -23.3101 6.34881
lfingers 7.12502
lthumb 3.14362 36.3054
rfemur -29.1915 -0.804261 4.07524
rtibia 26.1715
rfoot 2.61219 -21.8227
rtoes -6.30263
lfemur -6.9897 -4.36321 -14.186
ltibia 14.3995
lfoot -15.4396 16.3783
ltoes -10.2151
2729
root 0.683023 15.6529 7.36099 12.3105 -2.08682 0.290227
lowerback -0.267417 -0.419195 1.03573
upperback -6.33611 -0.471591 1.13179
thorax -6.42346 -0.257546 0.623521
lowerneck -13.5631 -1.23386 6.46648
upperneck 33.1812 -3.58213 -0.583831
head 13.3111 -0.850817 -1.90142
rclavicle -1.14301e-015 1.35174e-014
rhumerus -12.01 15.229 -71.9647
rradius 102.722
rwrist -12.7714
rhand -16.7517 2.52891
rfingers 7.12502
rthumb 9.47489 -27.2381
lclavicle -1.14301e-015 1.35174e-014
lhumerus -40.0436 -37.0582 102.153
lradius 114.351
lwrist -1.23057
lhand -23.2155 6.39489
lfingers 7.12502
lthumb 3.235 36.3501
rfemur -29.0727 0.171219 3.41594
rtibia 25.1584
rfoot 3.60928 -23.2285
rtoes -4.75199
lfemur -7.02847 -4.41723 -14.6017
ltibia 13.8481
lfoot -15.1041 16.4579
ltoes -9.55875
2730
root 0.784216 15.6804 7.32364 12.4722 -2.25303 0.270486
lowerback -0.41139 -0.315643 1.0856
upperback -6.34101 -0.334608 1.11246
thorax -6.34655 -0.192769 0.567082
lowerneck -13.5646 -1.14532 6.59846
upperneck 33.1538 -3.45276 -0.680197
head 13.3006 -0.790627 -1.94237
rclavicle 3.87009e-015 -1.19271e-014
rhumerus -12.4862 16.615 -73.1212
rradius 102.988
rwrist -13.3027
rhand -15.4809 2.33104
rfingers 7.12502
rthumb 10.7009 -27.3764
lclavicle 3.87009e-015 -1.19271e-014
lhumerus -39.8058 -37.3348 102.492
lradius 114.218
lwrist -1.26003
lhand -23.1078 6.43083
lfingers 7.12502
lthumb 3.33899 36.3844
rfemur -28.9835 1.32581 2.72554
rtibia 24.1846
rfoot 4.37535 -24.9386
rtoes -2.63652
lfemur -7.07324 -4.46129 -14.9897
ltibia 13.3031
lfoot -14.7808 16.5366
ltoes -8.89188
2731
root 0.882843 15.7059 7.2878 12.6372 -2.42046 0.236422
lowerback -0.575665 -0.218152 1.14248
upperback -6.33879 -0.20589 1.09999
thorax -6.25013 -0.132131 0.51468
lowerneck -13.5753 -1.05085 6.73294
upperneck 33.1275 -3.31202 -0.789632
head 13.2929 -0.726854 -1.98745
rclavicle 2.59973e-015 -2.26615e-014
rhumerus -12.99 17.9497 -74.322
rradius 103.205
rwrist -13.7022
rhand -14.1464 2.10315
rfingers 7.12502
rthumb 11.9879 -27.5336
lclavicle 2.59973e-015 -2.26615e-014
lhumerus -39.6117 -37.6019 102.831
lradius 114.098
lwrist -1.2818
lhand -22.9799 6.45972
lfingers 7.12502
lthumb 3.46256 36.4113
rfemur -28.913 2.66586 2.00501
rtibia 23.2823
rfoot 4.71269 -26.9676
rtoes 0.0706082
lfemur -7.13944 -4.49612 -15.3458
ltibia 12.8094
lfoot -14.4909 16.5991
ltoes -8.24094
